<svg xmlns="http://www.w3.org/2000/svg" width="39" height="40" viewBox="0 0 39 40" fill="none"><path d="M30.5355 4.38481C31.3918 4.96423 32.193 5.60551 32.9324 6.30863C36.3713 9.56384 38.4966 14.0593 38.4966 19.0267C38.4966 23.9942 36.3713 28.4896 32.9324 31.7448C29.4935 35 24.7443 37.0118 19.5 37.0118C17.0962 37.0118 14.799 36.5886 12.6806 35.8204L15.559 32.8125C16.8142 33.1348 18.1348 33.3041 19.5 33.3041C23.6645 33.3041 27.437 31.7058 30.1641 29.1211C32.8946 26.5365 34.5796 22.9688 34.5796 19.0267C34.5796 15.0847 32.8911 11.5137 30.1641 8.93233C29.5932 8.39197 28.9776 7.89718 28.3243 7.44796L30.5355 4.38481ZM6.75195 32.3633C6.5181 32.1615 6.28769 31.9564 6.06416 31.7448C2.62525 28.4896 0.5 23.9942 0.5 19.0267C0.5 14.0593 2.62525 9.56384 6.06416 6.30863C8.76715 3.75004 12.2783 1.95968 16.2055 1.31189L13.6779 5.85291C11.8519 6.57556 10.2081 7.63025 8.83249 8.93233C6.10199 11.517 4.41348 15.0847 4.41348 19.0267C4.41348 22.8744 6.01946 26.364 8.63303 28.9323L6.75195 32.3633Z" fill="#EE3C08"></path><path fill-rule="evenodd" clip-rule="evenodd" d="M31.0892 0L20.0297 0.139974L9.37594 19.2839L16.632 19.3555L5.29395 40L30.8691 13.5286H21.3158L31.0892 0Z" fill="#EE3C08"></path></svg>