<svg xmlns="http://www.w3.org/2000/svg" width="24" height="25" viewBox="0 0 24 25" fill="none"><path fill-rule="evenodd" clip-rule="evenodd" d="M7.55834 8.94438C6.51861 8.95309 5.47864 8.95119 4.43882 8.94541C4.14502 8.94366 3.99947 9.04509 4 9.37948C4.00651 13.1081 4.00398 16.8368 4.00475 20.5654C4.00483 20.7074 3.98308 20.8633 4.15789 20.928C4.16455 20.9507 7.83017 20.9493 7.84004 20.9267C8.033 20.8516 7.9941 20.6766 7.99418 20.5254C7.99586 16.8231 7.99288 13.1207 8 9.4183C8.00053 9.08233 7.88553 8.9416 7.55834 8.94438Z" fill="white"></path><path fill-rule="evenodd" clip-rule="evenodd" d="M5.99997 3.94434C4.89547 3.94434 4 4.8398 4 5.9443C4 7.04894 4.89547 7.94434 5.99997 7.94434C7.10453 7.94434 8 7.04894 8 5.9443C8 4.8398 7.10453 3.94434 5.99997 3.94434Z" fill="white"></path><path fill-rule="evenodd" clip-rule="evenodd" d="M20.9481 20.3696C20.9505 18.4584 20.9602 16.5471 20.9447 14.6361C20.9379 13.7989 20.9078 12.9596 20.7319 12.1358C20.4435 10.785 19.7945 9.73039 18.5054 9.23862C17.6453 8.91057 16.7461 8.88945 15.848 9.01662C15.0935 9.12345 14.3985 9.41083 13.7653 9.94499C13.7653 9.75065 13.7647 9.62177 13.7655 9.49304C13.7674 9.20395 13.6329 9.07327 13.3557 9.0746C12.3708 9.07919 11.3859 9.07803 10.4008 9.07538C10.1297 9.0746 9.99963 9.18657 10 9.49132C10.0052 13.1587 10.0033 16.8261 10.0034 20.4935C10.0034 20.6342 9.98491 20.7838 10.1477 20.8531C10.1649 20.8757 13.7208 20.8842 13.7207 20.8611C13.9539 20.7564 13.8822 20.5352 13.8826 20.3552C13.8858 18.5464 13.875 16.7375 13.8847 14.9287C13.8877 14.3631 13.9086 13.7917 14.1529 13.265C14.4424 12.6409 15.0415 12.3705 15.8854 12.4812C16.4659 12.5572 16.8365 12.9504 16.9519 13.6352C16.9946 13.8882 17.0265 14.1469 17.028 14.4032C17.0393 16.3929 17.0409 18.3825 17.0491 20.3722C17.05 20.5559 16.9948 20.7729 17.2315 20.8652C17.2234 20.8913 20.8039 20.8755 20.8048 20.8503C20.9975 20.7379 20.9479 20.542 20.9481 20.3696Z" fill="white"></path></svg>