<svg xmlns="http://www.w3.org/2000/svg" width="24" height="25" viewBox="0 0 24 25" fill="none"><path fill-rule="evenodd" clip-rule="evenodd" d="M6.44226 2.94434H17.5623C20.0954 3.03128 22.0809 5.15094 22.0023 7.68434V14.2043C22.0399 15.4279 21.5883 16.6159 20.7475 17.5056C19.9067 18.3952 18.746 18.913 17.5223 18.9443H8.00226C7.34345 18.958 6.71868 19.2396 6.27226 19.7243L3.90226 22.2543C3.70147 22.4733 3.41933 22.5999 3.12226 22.6043C2.81544 22.5965 2.52447 22.4664 2.31412 22.2429C2.10377 22.0194 1.99148 21.7211 2.00226 21.4143V7.68434C1.92363 5.15094 3.90913 3.03128 6.44226 2.94434ZM17.5623 17.4443C19.2672 17.3581 20.5815 15.9096 20.5023 14.2043V7.68434C20.5815 5.97906 19.2672 4.5306 17.5623 4.44434H6.44225C4.73731 4.5306 3.42298 5.97906 3.50225 7.68434V20.4843L5.13225 18.7043C5.87768 17.9114 6.91401 17.4564 8.00225 17.4443H17.5623Z" fill="#FFF5ED"></path><path d="M8.25225 9.69434H13.2523C13.6665 9.69434 14.0023 9.35855 14.0023 8.94434C14.0023 8.53012 13.6665 8.19434 13.2523 8.19434H8.25225C7.83804 8.19434 7.50225 8.53012 7.50225 8.94434C7.50225 9.35855 7.83804 9.69434 8.25225 9.69434Z" fill="#FFF5ED"></path><path d="M15.7523 12.1943H8.25225C7.83804 12.1943 7.50225 12.5301 7.50225 12.9443C7.50225 13.3585 7.83804 13.6943 8.25225 13.6943H15.7523C16.1665 13.6943 16.5023 13.3585 16.5023 12.9443C16.5023 12.5301 16.1665 12.1943 15.7523 12.1943Z" fill="#FFF5ED"></path></svg>