<svg xmlns="http://www.w3.org/2000/svg" width="31" height="36" viewBox="0 0 31 36" fill="none"><path d="M6.45422 26.2371L6.45436 26.2374C7.35896 28.0167 8.66667 29.5148 10.2545 30.5864C11.8425 31.6581 13.6571 32.2669 15.5246 32.3525C17.3921 32.438 19.2473 31.9971 20.9123 31.0738C22.5771 30.1507 23.9951 28.7766 25.0326 27.0855C26.0701 25.3944 26.6931 23.4418 26.8435 21.4145C26.994 19.3871 26.667 17.3508 25.8931 15.4999C25.1192 13.6489 23.9235 12.0437 22.4182 10.8395C20.9715 9.68213 19.2856 8.93253 17.5098 8.65757V7.03239H19.2534C19.4851 7.03239 19.7022 6.93139 19.8584 6.76026C20.014 6.58989 20.0979 6.36331 20.0979 6.13129L20.0979 4.53818L20.0979 4.53722C20.097 4.30573 20.0129 4.07997 19.8577 3.91002C19.7018 3.73933 19.4856 3.63816 19.2546 3.63708H19.2534H13.255V3.63706L13.2515 3.63711C13.0218 3.64031 12.8075 3.74234 12.6533 3.91274C12.4996 4.08241 12.4164 4.30701 12.4155 4.53723V4.53818V6.13128C12.4155 6.13128 12.4155 6.13129 12.4155 6.13129C12.4155 6.36204 12.4985 6.58744 12.6525 6.75752C12.8072 6.92836 13.0223 7.03023 13.2527 7.03238V7.03239H13.255H15.0011V8.59812C13.2499 8.77239 11.5634 9.40704 10.0854 10.4478C8.54273 11.5341 7.27763 13.0273 6.40516 14.7874C5.53273 16.5475 5.08042 18.5188 5.08899 20.5191C5.09755 22.5194 5.56672 24.486 6.45422 26.2371ZM25.3506 12.5604L25.6226 12.9094L25.7812 12.4964C26.2156 11.3651 26.181 10.1282 25.5196 9.28262L25.3227 9.43665L25.5196 9.28261C24.7084 8.24574 23.2773 8.16663 22.0192 8.84237L21.6726 9.02854L21.9884 9.26325C23.2381 10.1922 24.369 11.301 25.3506 12.5604ZM6.18813 12.4959L6.24952 12.6568H6.42169H6.42422H6.54624L6.62131 12.5606C7.60369 11.3018 8.73461 10.193 9.98382 9.26315L10.2992 9.0284L9.95284 8.84237C8.69482 8.16668 7.26378 8.24573 6.45263 9.28241C5.78824 10.1284 5.75672 11.3655 6.18813 12.4959ZM17.8693 19.5687C17.7064 19.1644 17.4356 18.82 17.0899 18.5814V14.1883C17.0899 13.8806 16.9785 13.5814 16.774 13.3575C16.5689 13.1329 16.2856 13.0018 15.9848 13.0018C15.684 13.0018 15.4006 13.1329 15.1955 13.3575C14.991 13.5814 14.8796 13.8806 14.8796 14.1883V18.5814C14.5339 18.82 14.2631 19.1644 14.1002 19.5687C13.9185 20.0198 13.8798 20.5229 13.9894 20.9996C14.099 21.4763 14.3516 21.9035 14.7119 22.2111C15.0727 22.5191 15.5205 22.689 15.9848 22.689C16.449 22.689 16.8968 22.5191 17.2576 22.2111C17.6179 21.9035 17.8706 21.4764 17.9801 20.9996C18.0897 20.5229 18.051 20.0198 17.8693 19.5687ZM11.187 28.4558C9.40126 27.1499 8.11261 25.1654 7.57329 22.8779C7.2467 21.4813 7.20869 20.0223 7.46212 18.6074C7.88161 16.2896 9.06521 14.2271 10.7809 12.8112C12.4958 11.3959 14.6227 10.7248 16.7554 10.9205C18.8885 11.1161 20.8859 12.1658 22.3641 13.8764C23.8429 15.5875 24.697 17.8391 24.7586 20.2017C24.8201 22.5644 24.0844 24.8662 22.6966 26.6676C21.3091 28.4685 19.3687 29.6415 17.249 29.97C15.1296 30.2985 12.9719 29.7611 11.187 28.4558Z" fill="#EE3C08" stroke="#EE3C08" stroke-width="0.5"></path></svg>