<svg xmlns="http://www.w3.org/2000/svg" width="26" height="25" viewBox="0 0 26 25" fill="none"><path d="M15.1455 10.8509H16.1872C16.3216 10.8509 16.4504 10.7989 16.5445 10.7066C16.6385 10.6142 16.69 10.4893 16.6872 10.3601V8.75755C16.6881 8.50692 16.4886 8.29766 16.2288 8.27678C16.2288 8.27678 15.4893 8.21668 14.583 8.21668C12.3538 8.21668 11.1247 9.48872 11.1247 11.7924V13.5652H9.07258C8.93912 13.5625 8.81026 13.6122 8.71587 13.703C8.62147 13.7938 8.56971 13.9177 8.57258 14.046V15.5084C8.56971 15.6367 8.62147 15.7606 8.71587 15.8513C8.81026 15.9421 8.93912 15.9919 9.07258 15.9891H11.0934V21.6582H14.1351V15.9891H15.9684C16.2202 15.9867 16.4325 15.8081 16.4684 15.5684L16.6559 14.1061C16.675 13.9677 16.6292 13.8283 16.5309 13.7255C16.4355 13.6229 16.299 13.5646 16.1559 13.5652H14.1351V11.8525C14.1348 11.3109 14.5824 10.8671 15.1455 10.8509Z" fill="white"></path><path fill-rule="evenodd" clip-rule="evenodd" d="M2.58301 12.8541C2.58301 7.37219 7.20473 2.92822 12.9059 2.92822C15.6437 2.92822 18.2694 3.97398 20.2053 5.83545C22.1413 7.69691 23.2288 10.2216 23.2288 12.8541C23.2288 18.336 18.6071 22.78 12.9059 22.78C7.20473 22.78 2.58301 18.336 2.58301 12.8541ZM21.6663 12.8541C21.6663 8.20195 17.7442 4.43063 12.9059 4.43063C8.07243 4.44164 4.15696 8.20652 4.1455 12.8541C4.1455 17.5063 8.06768 21.2776 12.9059 21.2776C17.7442 21.2776 21.6663 17.5063 21.6663 12.8541Z" fill="white"></path></svg>