<svg xmlns="http://www.w3.org/2000/svg" width="24" height="25" viewBox="0 0 24 25" fill="none"><path fill-rule="evenodd" clip-rule="evenodd" d="M8 2.94434H15.7C19.0137 2.94434 21.7 5.63063 21.7 8.94434V16.6443C21.7 19.958 19.0137 22.6443 15.7 22.6443H8C4.68629 22.6443 2 19.958 2 16.6443V8.94434C2 5.63063 4.68629 2.94434 8 2.94434ZM20.2 8.94434C20.1945 6.46134 18.183 4.44984 15.7 4.44434H8C5.517 4.44984 3.5055 6.46134 3.5 8.94434V16.6443C3.5055 19.1273 5.517 21.1388 8 21.1443H15.7C18.183 21.1388 20.1945 19.1273 20.2 16.6443V8.94434Z" fill="white"></path><path fill-rule="evenodd" clip-rule="evenodd" d="M7.55 12.7943C7.5555 10.4218 9.47746 8.49983 11.85 8.49434C14.2225 8.49983 16.1445 10.4218 16.15 12.7943C16.15 15.1692 14.2248 17.0943 11.85 17.0943C9.47518 17.0943 7.55 15.1692 7.55 12.7943ZM14.65 12.7943C14.65 11.2479 13.3964 9.99434 11.85 9.99434C10.3059 9.99982 9.05549 11.2502 9.05 12.7943C9.05 14.3407 10.3036 15.5943 11.85 15.5943C13.3964 15.5943 14.65 14.3407 14.65 12.7943Z" fill="white"></path><path d="M15.51 7.44934C15.51 6.85011 15.9958 6.36434 16.595 6.36434C17.1942 6.36434 17.68 6.85011 17.68 7.44934C17.68 8.04856 17.1942 8.53434 16.595 8.53434C15.9958 8.53434 15.51 8.04856 15.51 7.44934Z" fill="white"></path></svg>