<svg xmlns="http://www.w3.org/2000/svg" width="72" height="28" viewBox="0 0 72 28" fill="none"><path d="M61.4162 11.8403C59.0552 11.8403 57.1875 13.3556 56.7999 16.0337H66.0677C65.9972 13.4613 63.9534 11.8403 61.4162 11.8403ZM70.684 21.4957C69.6268 25.0901 66.3848 27.9444 61.5571 27.9444C55.8837 27.9444 51.7607 23.9977 51.7607 17.8661C51.7607 11.6993 55.778 7.78784 61.5571 7.78784C67.1953 7.78784 71.1773 11.6289 71.1773 17.4433C71.1773 18.0776 71.1421 18.7119 71.0363 19.3462H56.7646C57.0113 22.2357 58.9847 23.8567 61.4514 23.8567C63.5657 23.8567 64.7286 22.7996 65.3629 21.4957H70.684Z" fill="white"></path><path d="M32.4502 27.6272V1.55054H37.3836V16.3861L43.938 8.10495H50.3515L41.7532 17.9013L50.422 27.6272H44.0085L37.3836 19.3109V27.6272H32.4502Z" fill="white"></path><path d="M22.6438 27.6272V8.10491H27.5772V27.6272H22.6438ZM25.1458 5.77916C23.3838 5.77916 22.1152 4.51056 22.1152 2.88958C22.1152 1.26859 23.3838 0 25.1458 0C26.8725 0 28.1763 1.26859 28.1763 2.88958C28.1763 4.51056 26.8725 5.77916 25.1458 5.77916Z" fill="white"></path><path d="M13.7079 20.368C13.7079 18.2537 12.1926 16.9851 9.79637 16.9851H4.93343V23.61H9.90209C12.2983 23.61 13.7079 22.4471 13.7079 20.368ZM13.1088 10.1135C13.1088 8.14014 11.7697 7.0125 9.44399 7.0125H4.93343V13.1793H9.44399C11.7697 13.1793 13.1088 12.1221 13.1088 10.1135ZM18.7118 20.967C18.7118 24.8785 15.7165 27.6272 10.6069 27.6272H0V3.03052H10.1488C15.2936 3.03052 18.148 5.70866 18.148 9.37349C18.148 12.3688 16.3508 14.2364 13.9545 15.0117C16.7384 15.505 18.7118 18.0775 18.7118 20.967Z" fill="white"></path></svg>