<svg xmlns="http://www.w3.org/2000/svg" width="64" height="64"><path d="M0 0 C1.15129395 -0.00630432 2.30258789 -0.01260864 3.48876953 -0.019104 C4.73255371 -0.01505554 5.97633789 -0.01100708 7.2578125 -0.00683594 C9.17182861 -0.00970612 9.17182861 -0.00970612 11.12451172 -0.01263428 C13.82468179 -0.01399642 16.52449081 -0.01129984 19.22460938 -0.00195312 C22.6848708 0.00944136 26.14482197 0.00287993 29.60507202 -0.00909805 C32.90599664 -0.01806434 36.20688383 -0.01178587 39.5078125 -0.00683594 C40.75159668 -0.0108844 41.99538086 -0.01493286 43.27685547 -0.019104 C44.42814941 -0.01279968 45.57944336 -0.00649536 46.765625 0 C47.78027832 0.00159119 48.79493164 0.00318237 49.84033203 0.00482178 C52.3828125 0.25878906 52.3828125 0.25878906 55.3828125 2.25878906 C55.76376343 4.30810547 55.76376343 4.30810547 55.77099609 6.86035156 C55.78045258 7.81474121 55.78990906 8.76913086 55.7996521 9.75244141 C55.79357941 10.78578613 55.78750671 11.81913086 55.78125 12.88378906 C55.78412018 13.94162598 55.78699036 14.99946289 55.78994751 16.08935547 C55.79199154 18.32878148 55.78643814 20.5682252 55.77392578 22.80761719 C55.75787749 26.2448704 55.77376367 29.68094763 55.79296875 33.11816406 C55.79098638 35.29004167 55.78714283 37.46191854 55.78125 39.63378906 C55.78732269 40.66713379 55.79339539 41.70047852 55.7996521 42.76513672 C55.78546738 44.19672119 55.78546738 44.19672119 55.77099609 45.65722656 C55.76860931 46.49946777 55.76622253 47.34170898 55.76376343 48.20947266 C55.63804962 48.88574707 55.51233582 49.56202148 55.3828125 50.25878906 C51.97480092 52.53079678 50.7665782 52.5113038 46.765625 52.51757812 C45.61433105 52.52388245 44.46303711 52.53018677 43.27685547 52.53668213 C42.03307129 52.53263367 40.78928711 52.52858521 39.5078125 52.52441406 C37.59379639 52.52728424 37.59379639 52.52728424 35.64111328 52.5302124 C32.94094321 52.53157454 30.24113419 52.52887797 27.54101562 52.51953125 C24.0807542 52.50813676 20.62080303 52.51469819 17.16055298 52.52667618 C13.85962836 52.53564246 10.55874117 52.529364 7.2578125 52.52441406 C5.39213623 52.53048676 5.39213623 52.53048676 3.48876953 52.53668213 C2.33747559 52.53037781 1.18618164 52.52407349 0 52.51757812 C-1.01465332 52.51598694 -2.02930664 52.51439575 -3.07470703 52.51275635 C-5.6171875 52.25878906 -5.6171875 52.25878906 -8.6171875 50.25878906 C-8.99813843 48.20947266 -8.99813843 48.20947266 -9.00537109 45.65722656 C-9.01482758 44.70283691 -9.02428406 43.74844727 -9.0340271 42.76513672 C-9.02795441 41.73179199 -9.02188171 40.69844727 -9.015625 39.63378906 C-9.01849518 38.57595215 -9.02136536 37.51811523 -9.02432251 36.42822266 C-9.02636654 34.18879665 -9.02081314 31.94935292 -9.00830078 29.70996094 C-8.99225249 26.27270773 -9.00813867 22.83663049 -9.02734375 19.39941406 C-9.02536138 17.22753645 -9.02151783 15.05565958 -9.015625 12.88378906 C-9.02169769 11.85044434 -9.02777039 10.81709961 -9.0340271 9.75244141 C-9.02457062 8.79805176 -9.01511414 7.84366211 -9.00537109 6.86035156 C-9.00298431 6.01811035 -9.00059753 5.17586914 -8.99813843 4.30810547 C-8.87242462 3.63183105 -8.74671082 2.95555664 -8.6171875 2.25878906 C-5.20917592 -0.01321866 -4.0009532 0.00627432 0 0 Z M-4.6171875 3.25878906 C-6.98698763 6.21256405 -6.98698763 6.21256405 -6.6171875 10.25878906 C13.1828125 10.25878906 32.9828125 10.25878906 53.3828125 10.25878906 C52.8878125 7.28878906 52.8878125 7.28878906 52.3828125 4.25878906 C50.7328125 3.92878906 49.0828125 3.59878906 47.3828125 3.25878906 C47.8778125 6.22878906 47.8778125 6.22878906 48.3828125 9.25878906 C46.4028125 9.25878906 44.4228125 9.25878906 42.3828125 9.25878906 C42.7128125 7.27878906 43.0428125 5.29878906 43.3828125 3.25878906 C42.0628125 3.58878906 40.7428125 3.91878906 39.3828125 4.25878906 C39.8778125 6.73378906 39.8778125 6.73378906 40.3828125 9.25878906 C37.9078125 8.76378906 37.9078125 8.76378906 35.3828125 8.25878906 C35.3828125 6.60878906 35.3828125 4.95878906 35.3828125 3.25878906 C34.0628125 3.58878906 32.7428125 3.91878906 31.3828125 4.25878906 C31.8778125 6.73378906 31.8778125 6.73378906 32.3828125 9.25878906 C29.9078125 8.76378906 29.9078125 8.76378906 27.3828125 8.25878906 C27.3828125 6.60878906 27.3828125 4.95878906 27.3828125 3.25878906 C22.8621786 3.1847239 18.3418965 3.13022861 13.82080078 3.09399414 C12.28232676 3.07889196 10.74389589 3.0584086 9.20556641 3.0324707 C6.99631109 2.99614832 4.78762402 2.97907787 2.578125 2.96582031 C1.88848663 2.95033646 1.19884827 2.9348526 0.48831177 2.91889954 C-1.66147336 2.88341023 -1.66147336 2.88341023 -4.6171875 3.25878906 Z M-6.6171875 13.25878906 C-6.6584375 18.64191406 -6.6996875 24.02503906 -6.7421875 29.57128906 C-6.76039551 31.26680908 -6.77860352 32.9623291 -6.79736328 34.70922852 C-6.80320526 36.05517256 -6.80830152 37.40112014 -6.8125 38.74707031 C-6.82273193 39.44425171 -6.83296387 40.14143311 -6.84350586 40.85974121 C-6.84484216 44.5619557 -6.72955468 46.09023829 -4.6171875 49.25878906 C-2.17067352 49.71823038 -2.17067352 49.71823038 0.71875 49.64697266 C2.3905835 49.66115738 2.3905835 49.66115738 4.09619141 49.67562866 C5.30452637 49.66955597 6.51286133 49.66348328 7.7578125 49.65722656 C8.99321777 49.66009674 10.22862305 49.66296692 11.50146484 49.66592407 C14.78881528 49.66849329 18.0757429 49.65638984 21.36303711 49.63964844 C23.38083426 49.6337948 25.39824001 49.63962629 27.41601562 49.64990234 C31.28013436 49.66837962 35.14367 49.666204 39.0078125 49.65722656 C40.21614746 49.66329926 41.42448242 49.66937195 42.66943359 49.67562866 C43.78398926 49.66617218 44.89854492 49.6567157 46.046875 49.64697266 C47.03123535 49.64458588 48.0155957 49.6421991 49.02978516 49.63973999 C49.80628418 49.51402618 50.5827832 49.38831238 51.3828125 49.25878906 C53.81120112 45.61620613 53.63983989 42.95218704 53.578125 38.74707031 C53.57611084 38.10137085 53.57409668 37.45567139 53.57202148 36.79040527 C53.56157648 34.38396069 53.5336538 31.97761756 53.5078125 29.57128906 C53.4665625 24.18816406 53.4253125 18.80503906 53.3828125 13.25878906 C33.5828125 13.25878906 13.7828125 13.25878906 -6.6171875 13.25878906 Z " fill="#FFFFFF" transform="translate(8.6171875,5.7412109375)"></path><path d="M0 0 C2.31 0 4.62 0 7 0 C7 9.24 7 18.48 7 28 C7.99 28 8.98 28 10 28 C10 23.38 10 18.76 10 14 C12.31 14 14.62 14 17 14 C17 18.62 17 23.24 17 28 C17.66 28 18.32 28 19 28 C19 28.99 19 29.98 19 31 C8.77 31 -1.46 31 -12 31 C-11.505 29.515 -11.505 29.515 -11 28 C-10.85284801 26.37432921 -10.75278133 24.74413143 -10.68359375 23.11328125 C-10.64169922 22.17548828 -10.59980469 21.23769531 -10.55664062 20.27148438 C-10.51732422 19.29501953 -10.47800781 18.31855469 -10.4375 17.3125 C-10.39431641 16.32443359 -10.35113281 15.33636719 -10.30664062 14.31835938 C-10.20058346 11.87904454 -10.09852286 9.43962887 -10 7 C-7.69 7 -5.38 7 -3 7 C-3 13.93 -3 20.86 -3 28 C-2.01 28 -1.02 28 0 28 C0 18.76 0 9.52 0 0 Z M3 3 C3 10.59 3 18.18 3 26 C3.33 26 3.66 26 4 26 C4 18.41 4 10.82 4 3 C3.67 3 3.34 3 3 3 Z M-7 10 C-7 15.28 -7 20.56 -7 26 C-6.67 26 -6.34 26 -6 26 C-6 20.72 -6 15.44 -6 10 C-6.33 10 -6.66 10 -7 10 Z M13 17 C13 19.97 13 22.94 13 26 C13.33 26 13.66 26 14 26 C14 23.03 14 20.06 14 17 C13.67 17 13.34 17 13 17 Z " fill="#FFFFFF" transform="translate(40,21)"></path><path d="M0 0 C2.0625 1.9375 2.0625 1.9375 3 5 C2.79339068 10.03300314 1.71574567 13.91553687 -1.0625 18.125 C-5.12010997 20.71496381 -8.31460957 20.88275472 -13 20 C-16 18.5625 -16 18.5625 -18 16 C-19.24658854 11.8239284 -19.39478067 8.29713649 -18.125 4.125 C-13.32313254 -0.67686746 -6.42433757 -2.05578802 0 0 Z M-4 2 C-4 3.32 -4 4.64 -4 6 C-3.01 6 -2.02 6 -1 6 C-1.66 4.68 -2.32 3.36 -3 2 C-3.33 2 -3.66 2 -4 2 Z M-13.625 5.125 C-16.33170909 7.7800245 -16.33170909 7.7800245 -16 11.125 C-14.81783873 14.73708488 -14.81783873 14.73708488 -12 17 C-7.24637013 17.564387 -7.24637013 17.564387 -3.0625 15.625 C-1.81758355 14.04459814 -1.81758355 14.04459814 -2 12 C-4.64 12 -7.28 12 -10 12 C-10 9.03 -10 6.06 -10 3 C-11.43334486 2.89513363 -11.43334486 2.89513363 -13.625 5.125 Z " fill="#FFFFFF" transform="translate(24,23)"></path><path d="M0 0 C8.58 0 17.16 0 26 0 C25.67 0.99 25.34 1.98 25 3 C16.75 3 8.5 3 0 3 C0 2.01 0 1.02 0 0 Z " fill="#FFFFFF" transform="translate(7,11)"></path></svg>