<svg xmlns="http://www.w3.org/2000/svg" width="64" height="64"><path d="M0 0 C1.35581932 -0.0049926 1.35581932 -0.0049926 2.73902893 -0.01008606 C4.65487152 -0.01515921 6.57072297 -0.01749427 8.48657227 -0.01733398 C11.42544043 -0.01951938 14.36393277 -0.0376679 17.30273438 -0.05664062 C19.16015496 -0.05957462 21.01757734 -0.06155938 22.875 -0.0625 C23.75836533 -0.06968552 24.64173065 -0.07687103 25.55186462 -0.08427429 C31.77508486 -0.06085264 31.77508486 -0.06085264 34.00390625 2.16796875 C34.19921875 4.55078125 34.19921875 4.55078125 34.12890625 7.29296875 C34.11085937 8.20304688 34.0928125 9.113125 34.07421875 10.05078125 C34.05101562 10.74945313 34.0278125 11.448125 34.00390625 12.16796875 C35.03451172 12.11576172 35.03451172 12.11576172 36.0859375 12.0625 C36.98699219 12.03542969 37.88804688 12.00835937 38.81640625 11.98046875 C39.70972656 11.94566406 40.60304687 11.91085938 41.5234375 11.875 C44.00390625 12.16796875 44.00390625 12.16796875 45.63623047 13.19384766 C47.75687341 16.25481138 47.41165743 19.45526594 47.3671875 23.046875 C47.36793526 24.19868507 47.36793526 24.19868507 47.36869812 25.37376404 C47.36635958 26.99521475 47.35664394 28.61666923 47.34008789 30.23803711 C47.31646035 32.72477518 47.31953248 35.21044358 47.32617188 37.69726562 C47.32059619 39.27214183 47.313487 40.84701351 47.3046875 42.421875 C47.30605461 43.54064781 47.30605461 43.54064781 47.30744934 44.68202209 C47.23494916 49.93692584 47.23494916 49.93692584 45.00390625 52.16796875 C42.7890625 52.41088867 42.7890625 52.41088867 40.06640625 52.3984375 C39.08929688 52.39650391 38.1121875 52.39457031 37.10546875 52.39257812 C36.08195312 52.38033203 35.0584375 52.36808594 34.00390625 52.35546875 C32.98039062 52.35482422 31.956875 52.35417969 30.90234375 52.35351562 C23.28455128 52.30829126 23.28455128 52.30829126 21.00390625 51.16796875 C21.00390625 45.55796875 21.00390625 39.94796875 21.00390625 34.16796875 C18.87308594 34.17957031 16.74226563 34.19117188 14.546875 34.203125 C12.48169097 34.21092518 10.41650858 34.21699647 8.35131836 34.22290039 C6.91674057 34.22792717 5.48216789 34.23474954 4.04760742 34.2434082 C1.98485043 34.25554627 -0.07783879 34.26121361 -2.140625 34.265625 C-3.38175049 34.27086182 -4.62287598 34.27609863 -5.90161133 34.28149414 C-8.99609375 34.16796875 -8.99609375 34.16796875 -11.99609375 33.16796875 C-12.32609375 30.85796875 -12.65609375 28.54796875 -12.99609375 26.16796875 C-12.00609375 25.83796875 -11.01609375 25.50796875 -9.99609375 25.16796875 C-10.00133057 24.44617432 -10.00656738 23.72437988 -10.01196289 22.98071289 C-10.03266733 19.73064026 -10.04573293 16.48058147 -10.05859375 13.23046875 C-10.06697266 12.09416016 -10.07535156 10.95785156 -10.08398438 9.78710938 C-10.08720703 8.70751953 -10.09042969 7.62792969 -10.09375 6.515625 C-10.09898682 5.51539307 -10.10422363 4.51516113 -10.10961914 3.48461914 C-9.84762717 -1.86170738 -4.13660133 0.00519919 0 0 Z M-7.99609375 3.16796875 C-8.08309717 4.80269757 -8.10310438 6.4411093 -8.09375 8.078125 C-8.09052734 9.06748047 -8.08730469 10.05683594 -8.08398438 11.07617188 C-8.07560547 12.11708984 -8.06722656 13.15800781 -8.05859375 14.23046875 C-8.05408203 15.27525391 -8.04957031 16.32003906 -8.04492188 17.39648438 C-8.03309288 19.98703535 -8.01661064 22.57747434 -7.99609375 25.16796875 C-7.33609375 25.16796875 -6.67609375 25.16796875 -5.99609375 25.16796875 C-5.99609375 18.23796875 -5.99609375 11.30796875 -5.99609375 4.16796875 C5.88390625 4.16796875 17.76390625 4.16796875 30.00390625 4.16796875 C30.00390625 6.80796875 30.00390625 9.44796875 30.00390625 12.16796875 C30.33390625 12.16796875 30.66390625 12.16796875 31.00390625 12.16796875 C31.03079841 10.68889983 31.05025246 9.20969392 31.06640625 7.73046875 C31.07800781 6.90675781 31.08960938 6.08304688 31.1015625 5.234375 C31.23657973 3.17632937 31.23657973 3.17632937 30.00390625 2.16796875 C27.27666346 2.06697387 24.57528102 2.02826346 21.84765625 2.03515625 C21.03018921 2.03419952 20.21272217 2.0332428 19.3704834 2.03225708 C17.63875247 2.0315753 15.90701901 2.03342946 14.17529297 2.03759766 C11.51524143 2.04294596 8.85535875 2.03765263 6.1953125 2.03125 C4.51692671 2.03191078 2.83854102 2.03319195 1.16015625 2.03515625 C0.35912476 2.03313202 -0.44190674 2.03110779 -1.26721191 2.02902222 C-4.93191676 1.69583207 -4.93191676 1.69583207 -7.99609375 3.16796875 Z M-3.99609375 6.16796875 C-3.99609375 12.43796875 -3.99609375 18.70796875 -3.99609375 25.16796875 C4.25390625 25.16796875 12.50390625 25.16796875 21.00390625 25.16796875 C21.33390625 21.53796875 21.66390625 17.90796875 22.00390625 14.16796875 C23.98390625 13.50796875 25.96390625 12.84796875 28.00390625 12.16796875 C28.00390625 10.18796875 28.00390625 8.20796875 28.00390625 6.16796875 C17.44390625 6.16796875 6.88390625 6.16796875 -3.99609375 6.16796875 Z M24.00390625 15.16796875 C22.29897744 16.87289756 22.87586205 19.01331136 22.86495972 21.2869873 C22.86698395 22.00052368 22.86900818 22.71406006 22.87109375 23.44921875 C22.87013702 24.17790161 22.8691803 24.90658447 22.86819458 25.65734863 C22.8675129 27.20076585 22.86936637 28.74418592 22.87353516 30.28759766 C22.87888363 32.65794275 22.87358983 35.02809834 22.8671875 37.3984375 C22.86784828 38.89453167 22.86912945 40.39062572 22.87109375 41.88671875 C22.86906952 42.60025513 22.86704529 43.3137915 22.86495972 44.0489502 C22.58741974 47.39283304 22.58741974 47.39283304 24.00390625 50.16796875 C25.4073936 50.26657006 26.81571102 50.29875812 28.22265625 50.30078125 C29.07214844 50.30207031 29.92164063 50.30335937 30.796875 50.3046875 C31.69019531 50.30082031 32.58351563 50.29695313 33.50390625 50.29296875 C34.84388672 50.29876953 34.84388672 50.29876953 36.2109375 50.3046875 C37.48517578 50.30275391 37.48517578 50.30275391 38.78515625 50.30078125 C39.56955078 50.29965332 40.35394531 50.29852539 41.16210938 50.29736328 C43.02143613 50.36904317 43.02143613 50.36904317 44.00390625 49.16796875 C44.09238368 46.64702799 44.11917926 44.15365982 44.1015625 41.6328125 C44.10014755 40.87956192 44.0987326 40.12631134 44.09727478 39.35023499 C44.09166001 36.93527315 44.07910508 34.52040274 44.06640625 32.10546875 C44.06139315 30.47200654 44.05682991 28.83854289 44.05273438 27.20507812 C44.04168579 23.1926729 44.02441131 19.18033634 44.00390625 15.16796875 C42.68390625 15.16796875 41.36390625 15.16796875 40.00390625 15.16796875 C40.00390625 15.82796875 40.00390625 16.48796875 40.00390625 17.16796875 C38.08692688 17.02630518 36.17032902 16.87947291 34.25390625 16.73046875 C33.1865625 16.64925781 32.11921875 16.56804688 31.01953125 16.484375 C28.00390625 16.16796875 28.00390625 16.16796875 25.67578125 15.5703125 C24.84820312 15.37115234 24.84820312 15.37115234 24.00390625 15.16796875 Z M-9.99609375 28.16796875 C-9.99609375 29.15796875 -9.99609375 30.14796875 -9.99609375 31.16796875 C0.23390625 31.16796875 10.46390625 31.16796875 21.00390625 31.16796875 C21.00390625 30.17796875 21.00390625 29.18796875 21.00390625 28.16796875 C20.01390625 28.49796875 19.02390625 28.82796875 18.00390625 29.16796875 C15.7781629 29.39248333 13.54809106 29.57579753 11.31640625 29.73046875 C9.54716797 29.85615234 9.54716797 29.85615234 7.7421875 29.984375 C6.83855469 30.04496094 5.93492188 30.10554688 5.00390625 30.16796875 C5.00390625 29.50796875 5.00390625 28.84796875 5.00390625 28.16796875 C0.05390625 28.16796875 -4.89609375 28.16796875 -9.99609375 28.16796875 Z " fill="#FFFFFF" transform="translate(14.99609375,5.83203125)"></path><path d="M0 0 C2.5 0.125 2.5 0.125 3.5 1.125 C3.6875 4.5625 3.6875 4.5625 3.5 8.125 C2.84 8.785 2.18 9.445 1.5 10.125 C-2.03571429 9.58928571 -2.03571429 9.58928571 -3.5 8.125 C-3.625 4.625 -3.625 4.625 -3.5 1.125 C-2.5 0.125 -2.5 0.125 0 0 Z M-0.5 2.125 C-0.5 2.785 -0.5 3.445 -0.5 4.125 C0.16 3.795 0.82 3.465 1.5 3.125 C0.84 2.795 0.18 2.465 -0.5 2.125 Z " fill="#FFFFFF" transform="translate(30.5,16.875)"></path><path d="M0 0 C1.2065625 0.0309375 1.2065625 0.0309375 2.4375 0.0625 C2.4375 3.0325 2.4375 6.0025 2.4375 9.0625 C0.7875 9.3925 -0.8625 9.7225 -2.5625 10.0625 C-3.4722643 6.99204549 -3.73549981 4.26299657 -3.5625 1.0625 C-2.5625 0.0625 -2.5625 0.0625 0 0 Z " fill="#FFFFFF" transform="translate(45.5625,27.9375)"></path><path d="M0 0 C1.98 0 3.96 0 6 0 C6 3.27275026 5.70074844 5.846632 5 9 C3.68 9.33 2.36 9.66 1 10 C0.67 9.01 0.34 8.02 0 7 C0.66 6.67 1.32 6.34 2 6 C1.01 5.67 0.02 5.34 -1 5 C-0.67 3.35 -0.34 1.7 0 0 Z " fill="#FFFFFF" transform="translate(20,17)"></path><path d="M0 0 C2.125 0.375 2.125 0.375 4 1 C4 3.64 4 6.28 4 9 C2.125 9.625 2.125 9.625 0 10 C-2 8 -2 8 -2.25 5 C-2 2 -2 2 0 0 Z M0 3 C0.33 3.66 0.66 4.32 1 5 C1.33 4.34 1.66 3.68 2 3 C1.34 3 0.68 3 0 3 Z " fill="#FFFFFF" transform="translate(51,28)"></path><path d="M0 0 C0.99 0 1.98 0 3 0 C3 0.66 3 1.32 3 2 C4.32 2 5.64 2 7 2 C7 2.66 7 3.32 7 4 C5.68 4 4.36 4 3 4 C3 4.66 3 5.32 3 6 C1.68 5.67 0.36 5.34 -1 5 C-1 1 -1 1 0 0 Z " fill="#FFFFFF" transform="translate(43,43)"></path><path d="M0 0 C1.32 0.33 2.64 0.66 4 1 C3.6875 2.9375 3.6875 2.9375 3 5 C2.01 5.33 1.02 5.66 0 6 C0 5.34 0 4.68 0 4 C-1.65 4 -3.3 4 -5 4 C-5 3.34 -5 2.68 -5 2 C-3.35 2 -1.7 2 0 2 C0 1.34 0 0.68 0 0 Z " fill="#FFFFFF" transform="translate(52,39)"></path><path d="M0 0 C2.31 0 4.62 0 7 0 C7 0.66 7 1.32 7 2 C4.69 2 2.38 2 0 2 C0 1.34 0 0.68 0 0 Z " fill="#FFFFFF" transform="translate(45,52)"></path></svg>