<svg xmlns="http://www.w3.org/2000/svg" width="18" height="19" viewBox="0 0 18 19" fill="none"><path d="M4.95712 8.34197C5.5621 9.43872 6.25937 10.4913 7.16464 11.4511C8.07285 12.4169 9.20224 13.2958 10.6642 14.0466C10.7726 14.0996 10.8751 14.0996 10.9674 14.0627C11.1065 14.0097 11.2486 13.8934 11.3878 13.7536C11.4962 13.6447 11.631 13.4709 11.7716 13.281L11.7748 13.2767C12.3368 12.534 13.0318 11.6155 14.0128 12.0768C14.0223 12.0813 14.0307 12.086 14.039 12.0907C14.0498 12.0968 14.0604 12.1027 14.0728 12.1077L17.3512 14.0024C17.3573 14.0059 17.3641 14.0111 17.3704 14.0159C17.3745 14.0191 17.3784 14.0221 17.3819 14.0245C17.8141 14.3233 17.9928 14.7841 17.9972 15.3067C17.9972 15.8382 17.8023 16.4359 17.5167 16.9408C17.1388 17.6077 16.5821 18.0493 15.9405 18.3408C15.3297 18.6235 14.65 18.7751 13.9967 18.8723C12.9713 19.0239 12.0103 18.9267 11.0274 18.6235C10.0665 18.3246 9.09824 17.8315 8.04062 17.1749L7.96298 17.1248C7.93352 17.1063 7.90392 17.0877 7.87418 17.069C7.41443 16.7803 6.92247 16.4714 6.43954 16.1105C4.55869 14.6825 2.64121 12.62 1.39169 10.35C0.34433 8.44502 -0.226959 6.38842 0.0850527 4.42899C0.257904 3.35432 0.7164 2.37681 1.51621 1.732C2.21347 1.1667 3.15244 0.857547 4.36826 0.966486C4.50742 0.976791 4.63193 1.05776 4.69785 1.17848L6.7999 4.74992C7.10751 5.15034 7.1456 5.54782 6.97714 5.9453C6.83798 6.27065 6.55673 6.57097 6.17294 6.85068C6.06015 6.94784 5.92538 7.04647 5.78329 7.14952C5.31308 7.49253 4.77841 7.88854 4.96152 8.35374L4.95712 8.34197Z" fill="#F6F6F6"></path><path d="M4.95712 8.34197C5.5621 9.43872 6.25937 10.4913 7.16464 11.4511C8.07285 12.4169 9.20224 13.2958 10.6642 14.0466C10.7726 14.0996 10.8751 14.0996 10.9674 14.0627C11.1065 14.0097 11.2486 13.8934 11.3878 13.7536C11.4962 13.6447 11.631 13.4709 11.7716 13.281L11.7748 13.2767C12.3368 12.534 13.0318 11.6155 14.0128 12.0768C14.0223 12.0813 14.0307 12.086 14.039 12.0907C14.0498 12.0968 14.0604 12.1027 14.0728 12.1077L17.3512 14.0024C17.3573 14.0059 17.3641 14.0111 17.3704 14.0159C17.3745 14.0191 17.3784 14.0221 17.3819 14.0245C17.8141 14.3233 17.9928 14.7841 17.9972 15.3067C17.9972 15.8382 17.8023 16.4359 17.5167 16.9408C17.1388 17.6077 16.5821 18.0493 15.9405 18.3408C15.3297 18.6235 14.65 18.7751 13.9967 18.8723C12.9713 19.0239 12.0103 18.9267 11.0274 18.6235C10.0665 18.3246 9.09824 17.8315 8.04062 17.1749L7.96298 17.1248C7.93352 17.1063 7.90392 17.0877 7.87418 17.069C7.41443 16.7803 6.92247 16.4714 6.43954 16.1105C4.55869 14.6825 2.64121 12.62 1.39169 10.35C0.34433 8.44502 -0.226959 6.38842 0.0850527 4.42899C0.257904 3.35432 0.7164 2.37681 1.51621 1.732C2.21347 1.1667 3.15244 0.857547 4.36826 0.966486C4.50742 0.976791 4.63193 1.05776 4.69785 1.17848L6.7999 4.74992C7.10751 5.15034 7.1456 5.54782 6.97714 5.9453C6.83798 6.27065 6.55673 6.57097 6.17294 6.85068C6.06015 6.94784 5.92538 7.04647 5.78329 7.14952C5.31308 7.49253 4.77841 7.88854 4.96152 8.35374L4.95712 8.34197Z" stroke="white"></path></svg>