<svg xmlns="http://www.w3.org/2000/svg" width="64" height="64"><path d="M0 0 C4.62 0 9.24 0 14 0 C14.33 0.99 14.66 1.98 15 3 C15.79664063 2.95359375 16.59328125 2.9071875 17.4140625 2.859375 C18.47367188 2.82328125 19.53328125 2.7871875 20.625 2.75 C21.66914063 2.70359375 22.71328125 2.6571875 23.7890625 2.609375 C27 3 27 3 29.87890625 4.9609375 C33.81557664 7.53282979 36.7105771 7.73585782 41.3125 7.875 C42.0643457 7.90980469 42.81619141 7.94460937 43.59082031 7.98046875 C49.05899966 8.16029637 53.70649002 7.41160266 59 6 C62.0625 6.375 62.0625 6.375 64 7 C64.29296875 9.76953125 64.29296875 9.76953125 64 13 C61.98828125 15.01171875 61.98828125 15.01171875 59.3125 16.6875 C58.44238281 17.24824219 57.57226562 17.80898438 56.67578125 18.38671875 C54.87348665 19.47335769 53.0578718 20.53816914 51.23046875 21.58203125 C48.88249533 22.80593893 48.88249533 22.80593893 48 25 C48.66 25 49.32 25 50 25 C50 26.98 50 28.96 50 31 C49.34 31 48.68 31 48 31 C48 32.65 48 34.3 48 36 C46.125 37.0625 46.125 37.0625 44 38 C43.01 37.505 43.01 37.505 42 37 C42 37.66 42 38.32 42 39 C40.02 39 38.04 39 36 39 C36 38.34 36 37.68 36 37 C35.01 37.33 34.02 37.66 33 38 C31.5 36.75 31.5 36.75 30 35 C30 33.68 30 32.36 30 31 C29.34 31 28.68 31 28 31 C28 29.35 28 27.7 28 26 C25.85587698 25.47216999 23.70964319 24.95290681 21.5625 24.4375 C20.36753906 24.14746094 19.17257813 23.85742188 17.94140625 23.55859375 C16.97074219 23.37425781 16.00007813 23.18992187 15 23 C14.67 23.33 14.34 23.66 14 24 C9.33154772 24.14426614 4.67134047 24.04208415 0 24 C0 16.08 0 8.16 0 0 Z M2 2 C2 8.6 2 15.2 2 22 C3.98 22 5.96 22 8 22 C7.34 21.67 6.68 21.34 6 21 C6.33 19.68 6.66 18.36 7 17 C7.99 17 8.98 17 10 17 C10 18.65 10 20.3 10 22 C10.66 22 11.32 22 12 22 C12 15.4 12 8.8 12 2 C8.7 2 5.4 2 2 2 Z M15 5 C15 9.95 15 14.9 15 20 C19.95 20.99 24.9 21.98 30 23 C30.66 22.01 31.32 21.02 32 20 C33.32 20 34.64 20 36 20 C36 19.34 36 18.68 36 18 C37.98 18 39.96 18 42 18 C42 18.66 42 19.32 42 20 C47.75865405 20.44241549 50.66319423 19.48101663 55.375 16.1875 C56.41398437 15.47980469 57.45296875 14.77210937 58.5234375 14.04296875 C61.23735881 12.17223484 61.23735881 12.17223484 62 9 C60.56208484 9.14168137 59.1246763 9.28851043 57.6875 9.4375 C56.88699219 9.51871094 56.08648437 9.59992187 55.26171875 9.68359375 C52.83912821 9.95265693 52.83912821 9.95265693 50 11 C49.66355469 11.97839844 49.66355469 11.97839844 49.3203125 12.9765625 C48 15 48 15 44.3671875 15.8984375 C42.87197707 16.07669212 41.37425405 16.23476365 39.875 16.375 C39.14023437 16.46910156 38.40546875 16.56320313 37.6484375 16.66015625 C32.29980492 17.23456926 28.14494869 16.55165119 23 15 C23 14.34 23 13.68 23 13 C24.49080078 13.50466797 24.49080078 13.50466797 26.01171875 14.01953125 C30.04765981 15.17106014 33.62244821 15.0342341 37.8125 14.6875 C39.11832031 14.58824219 40.42414062 14.48898438 41.76953125 14.38671875 C44.88502791 14.19820713 44.88502791 14.19820713 47 13 C47 12.01 47 11.02 47 10 C45.91460937 9.97421875 44.82921875 9.9484375 43.7109375 9.921875 C42.26558651 9.86556262 40.82027556 9.808216 39.375 9.75 C38.30572266 9.72873047 38.30572266 9.72873047 37.21484375 9.70703125 C31.98280576 9.46702951 29.35522406 8.04865684 25 5 C22.26270108 4.52361829 22.26270108 4.52361829 19.625 4.75 C18.09875 4.8325 16.5725 4.915 15 5 Z M38 20 C37.67 20.66 37.34 21.32 37 22 C35.68 22 34.36 22 33 22 C32.855625 22.78375 32.71125 23.5675 32.5625 24.375 C32 27 32 27 31 29 C31.66 29 32.32 29 33 29 C33 30.65 33 32.3 33 34 C34.65 34 36.3 34 38 34 C38.33 34.99 38.66 35.98 39 37 C39.66 36.34 40.32 35.68 41 35 C43.125 34.375 43.125 34.375 45 34 C45.12375 33.38125 45.2475 32.7625 45.375 32.125 C46 30 46 30 48 28 C47.01 27.67 46.02 27.34 45 27 C45 25.35 45 23.7 45 22 C43.35 22 41.7 22 40 22 C40 21.34 40 20.68 40 20 C39.34 20 38.68 20 38 20 Z " fill="#FFFFFF" transform="translate(0,20)"></path><path d="M0 0 C2.875 0.75 2.875 0.75 3.875 1.75 C4 5.25 4 5.25 3.875 8.75 C2.875 9.75 2.875 9.75 -0.5625 9.9375 C-4.125 9.75 -4.125 9.75 -6.125 7.75 C-6.4883156 4.91613833 -6.4818671 3.34477849 -5 0.875 C-3.125 -0.25 -3.125 -0.25 0 0 Z M-2.125 2.75 C-2.455 4.07 -2.785 5.39 -3.125 6.75 C-1.805 6.75 -0.485 6.75 0.875 6.75 C0.875 5.43 0.875 4.11 0.875 2.75 C-0.115 2.75 -1.105 2.75 -2.125 2.75 Z " fill="#FFFFFF" transform="translate(40.125,43.25)"></path><path d="M0 0 C-1.37154504 2.95409701 -2.98863724 5.44008376 -5 8 C-4.175 8.78375 -3.35 9.5675 -2.5 10.375 C0 13 0 13 0 15 C-4.25219775 14.52753358 -6.37314725 12.22727623 -9 9 C-9.20186821 5.7701086 -7.74906457 4.70944319 -5.625 2.25 C-3 0 -3 0 0 0 Z " fill="#FFFFFF" transform="translate(40,7)"></path><path d="M0 0 C3.35915158 1.43963639 5.71624938 3.12416589 8 6 C8.10446693 9.23847472 6.72556776 10.30961586 4.5625 12.75 C2 15 2 15 0 15 C0.59927826 11.64404172 1.84622436 9.62198774 4 7 C3.34 6.401875 2.68 5.80375 2 5.1875 C0 3 0 3 0 0 Z " fill="#FFFFFF" transform="translate(53,7)"></path><path d="M0 0 C0.66 0 1.32 0 2 0 C1.52877252 6.9113364 -1.20636006 12.72204161 -4 19 C-4.66 19 -5.32 19 -6 19 C-4.70024676 12.28460827 -2.70071112 6.27980887 0 0 Z " fill="#FFFFFF" transform="translate(48,5)"></path></svg>