<svg xmlns="http://www.w3.org/2000/svg" width="64" height="64"><path d="M0 0 C5.94 0 11.88 0 18 0 C18 5.61 18 11.22 18 17 C15.69 16.67 13.38 16.34 11 16 C8.36942449 17.89152427 8.36942449 17.89152427 7 21 C6.74984127 24.41642759 6.74984127 24.41642759 7 28 C6.64550781 29.02996094 6.29101562 30.05992188 5.92578125 31.12109375 C6.01544925 35.80742674 6.85181178 36.42276503 10.0234375 39.69921875 C11.78785502 41.38258998 13.57269973 43.04475181 15.375 44.6875 C17.15995351 46.35133167 18.93890053 48.0216372 20.7109375 49.69921875 C21.50806152 50.42971436 22.30518555 51.16020996 23.12646484 51.9128418 C25.03496998 54.03895731 25.74403249 55.17986668 26 58 C24.9609375 59.73828125 24.9609375 59.73828125 23.375 61.3125 C22.86710937 61.84488281 22.35921875 62.37726562 21.8359375 62.92578125 C20 64 20 64 17.65795898 63.83740234 C14.29871405 62.7790566 12.97623624 61.29059778 10.63671875 58.67578125 C9.42918945 57.38124023 9.42918945 57.38124023 8.19726562 56.06054688 C6.52354532 54.22792083 4.86202164 52.38408116 3.21289062 50.52929688 C-0.76008375 45.84816262 -0.76008375 45.84816262 -6.21240234 43.86694336 C-8.25299533 44.41121323 -10.07045837 45.15009885 -12 46 C-18.09278983 46.34537617 -23.24776295 45.10887241 -28.2421875 41.5703125 C-32.77915568 37.51728759 -35.11339238 33.0727664 -36 27.0625 C-36.34370719 20.6793665 -34.59561153 15.56437568 -31.25 10.1875 C-26.50434873 5.57367237 -21.40393779 3.34039378 -14.875 2.6875 C-10.44125365 3.04506019 -7.24032502 4.37519172 -3.234375 6.22265625 C-0.87627353 7.29786443 -0.87627353 7.29786443 2 6 C1.34 5.01 0.68 4.02 0 3 C0 2.01 0 1.02 0 0 Z M8 4 C7.66935547 5.05574219 7.66935547 5.05574219 7.33203125 6.1328125 C5.69127808 9.66452166 3.39981643 12.15187753 0.6875 14.875 C0.21376953 15.38546875 -0.25996094 15.8959375 -0.74804688 16.421875 C-2.98124853 18.68257161 -4.29537771 19.98051736 -7.54296875 20.0703125 C-10 19 -10 19 -15 15 C-19.95 19.95 -24.9 24.9 -30 30 C-29.34 30.99 -28.68 31.98 -28 33 C-27.18015625 32.12214844 -26.3603125 31.24429687 -25.515625 30.33984375 C-24.42775603 29.20508388 -23.33917723 28.07100421 -22.25 26.9375 C-21.71117187 26.35677734 -21.17234375 25.77605469 -20.6171875 25.17773438 C-19.015625 23.52734375 -19.015625 23.52734375 -16 21 C-12.18874285 21.39666518 -10.51726184 23.21303153 -8 26 C-4.97574665 24.65135205 -2.93963359 23.16174984 -0.65234375 20.77734375 C-0.04712891 20.15666016 0.55808594 19.53597656 1.18164062 18.89648438 C2.11266602 17.92678711 2.11266602 17.92678711 3.0625 16.9375 C4.29861949 15.65035391 5.53932158 14.36758881 6.78515625 13.08984375 C7.33051025 12.52128662 7.87586426 11.95272949 8.43774414 11.36694336 C10 10 10 10 13 9 C13 7.35 13 5.7 13 4 C11.35 4 9.7 4 8 4 Z M-27.3125 14.3125 C-29.85150037 17.42824458 -30.80070558 19.91446446 -31 24 C-26.27959355 20.06632796 -22.01799564 16.00157156 -17.89453125 11.44140625 C-16 10 -16 10 -13.90234375 10.1484375 C-11.36849062 11.28268798 -9.84528248 12.95700869 -8 15 C-6.68 14.34 -5.36 13.68 -4 13 C-7.36465105 9.40330405 -9.29758297 8.1284843 -14.3125 7.75 C-20.07555386 8.14071552 -23.44533329 10.15069201 -27.3125 14.3125 Z M1 25 C0.07330563 26.01173911 -0.8414048 27.03447605 -1.75 28.0625 C-4.64244547 30.98255832 -4.64244547 30.98255832 -7.5625 31.125 C-10 30 -10 30 -15 26 C-18.3 29.3 -21.6 32.6 -25 36 C-20.93183456 40.06816544 -20.11116735 40.84066662 -14.6875 41.25 C-8.92444614 40.85928448 -5.55466671 38.84930799 -1.6875 34.6875 C0.85150037 31.57175542 1.80070558 29.08553554 2 25 C1.67 25 1.34 25 1 25 Z M1 39 C0.6890332 41.99355749 0.6890332 41.99355749 2.43701172 43.80932617 C3.42338623 44.79122925 3.42338623 44.79122925 4.4296875 45.79296875 C5.14253906 46.50517578 5.85539062 47.21738281 6.58984375 47.95117188 C7.34394531 48.68916016 8.09804688 49.42714844 8.875 50.1875 C9.62136719 50.93708984 10.36773437 51.68667969 11.13671875 52.45898438 C14.50715145 56.41196025 14.50715145 56.41196025 19 58 C17.60982588 54.86421688 15.98666305 52.73988136 13.55859375 50.328125 C12.89279297 49.66425781 12.22699219 49.00039063 11.54101562 48.31640625 C10.49977539 47.29353516 10.49977539 47.29353516 9.4375 46.25 C8.73947266 45.55261719 8.04144531 44.85523438 7.32226562 44.13671875 C4.55238133 40.78906386 4.55238133 40.78906386 1 39 Z " fill="#FFFFFF" transform="translate(37,0)"></path></svg>